# xmcd CD database file
#
# Track frame offsets:
#	150
#	5100
#	24825
#	41325
#	66150
#	85500
#	106725
#	131700
#	148800
#	165450
#	187425
#	208500
#
# Disc length: 2999 seconds
#
# Revision: 1
# Processed by: cddbd v1.5.1PL2 Copyright (c) Steve Scherf et al.
# Submitted via: freeDBTagger 0.8.2.1
#
DISCID=a00bb50c
DTITLE=ルルティア - ミーム
DYEAR=2005
DGENRE=blues
TTITLE0=Dancing Meme
TTITLE1=tone
TTITLE2=リラが散っても
TTITLE3=プライマリー (album ver.)
TTITLE4=シグナル
TTITLE5=スカーレット
TTITLE6=セレナイト
TTITLE7=ヒースの楽園
TTITLE8=青い薔薇
TTITLE9=蝶ノ森
TTITLE10=コバルトの星
TTITLE11=Sleeping Meme
EXTD=
EXTT0=
EXTT1=
EXTT2=
EXTT3=
EXTT4=
EXTT5=
EXTT6=
EXTT7=
EXTT8=
EXTT9=
EXTT10=
EXTT11=
PLAYORDER=
